<mxfile host="65bd71144e">
    <diagram id="Wl-bCFiKHZFEnNSlyjZQ" name="Global Architecture">
        <mxGraphModel dx="988" dy="720" grid="1" gridSize="10" guides="1" tooltips="1" connect="1" arrows="1" fold="1" page="1" pageScale="1" pageWidth="1200" pageHeight="1920" math="0" shadow="0">
            <root>
                <mxCell id="0"/>
                <mxCell id="1" parent="0"/>
                <mxCell id="27" value="PowerCARD V3.5 AIX Monitoring System Architecture" style="text;html=1;strokeColor=none;fillColor=none;align=center;verticalAlign=middle;whiteSpace=wrap;rounded=0;fontSize=16;fontStyle=1;" vertex="1" parent="1">
                    <mxGeometry x="400" y="20" width="400" height="30" as="geometry"/>
                </mxCell>
                <mxCell id="28" value="Docker Containerization" style="rounded=1;whiteSpace=wrap;html=1;fillColor=#f5f5f5;strokeColor=#666666;fontSize=14;fontStyle=1;dashed=1;" vertex="1" parent="1">
                    <mxGeometry x="40" y="60" width="900" height="660" as="geometry"/>
                </mxCell>
                <mxCell id="29" value="AIX Servers Layer" style="rounded=1;whiteSpace=wrap;html=1;fillColor=#e1d5e7;strokeColor=#9673a6;fontSize=12;fontStyle=1;" vertex="1" parent="1">
                    <mxGeometry x="80" y="80" width="120" height="40" as="geometry"/>
                </mxCell>
                <mxCell id="30" value="PowerCARD&#xa;Server 1" style="rounded=1;whiteSpace=wrap;html=1;fillColor=#f8cecc;strokeColor=#b85450;" vertex="1" parent="1">
                    <mxGeometry x="60" y="140" width="80" height="60" as="geometry"/>
                </mxCell>
                <mxCell id="31" value="PowerCARD&#xa;Server 2" style="rounded=1;whiteSpace=wrap;html=1;fillColor=#f8cecc;strokeColor=#b85450;" vertex="1" parent="1">
                    <mxGeometry x="160" y="140" width="80" height="60" as="geometry"/>
                </mxCell>
                <mxCell id="32" value="PowerCARD&#xa;Server N" style="rounded=1;whiteSpace=wrap;html=1;fillColor=#f8cecc;strokeColor=#b85450;" vertex="1" parent="1">
                    <mxGeometry x="260" y="140" width="80" height="60" as="geometry"/>
                </mxCell>
                <mxCell id="33" value="Data Collection Layer" style="rounded=1;whiteSpace=wrap;html=1;fillColor=#d5e8d4;strokeColor=#82b366;fontSize=12;fontStyle=1;" vertex="1" parent="1">
                    <mxGeometry x="80" y="240" width="260" height="40" as="geometry"/>
                </mxCell>
                <mxCell id="34" value="Python SSH Collectors&#xa;(Paramiko)" style="rounded=1;whiteSpace=wrap;html=1;fillColor=#d5e8d4;strokeColor=#82b366;" vertex="1" parent="1">
                    <mxGeometry x="120" y="300" width="120" height="60" as="geometry"/>
                </mxCell>
                <mxCell id="35" value="Celery&#xa;Task Queue" style="rounded=1;whiteSpace=wrap;html=1;fillColor=#d5e8d4;strokeColor=#82b366;" vertex="1" parent="1">
                    <mxGeometry x="260" y="300" width="80" height="60" as="geometry"/>
                </mxCell>
                <mxCell id="36" value="Apache Kafka&#xa;Message Streaming" style="rounded=1;whiteSpace=wrap;html=1;fillColor=#fff2cc;strokeColor=#d6b656;fontSize=12;fontStyle=1;" vertex="1" parent="1">
                    <mxGeometry x="480" y="300" width="120" height="60" as="geometry"/>
                </mxCell>
                <mxCell id="37" value="Processing &amp; Analytics Layer" style="rounded=1;whiteSpace=wrap;html=1;fillColor=#ffd966;strokeColor=#d6b656;fontSize=12;fontStyle=1;" vertex="1" parent="1">
                    <mxGeometry x="680" y="240" width="200" height="40" as="geometry"/>
                </mxCell>
                <mxCell id="38" value="Anomaly Detection&#xa;(Hybrid ML/Rules)" style="rounded=1;whiteSpace=wrap;html=1;fillColor=#ffd966;strokeColor=#d6b656;" vertex="1" parent="1">
                    <mxGeometry x="660" y="300" width="120" height="60" as="geometry"/>
                </mxCell>
                <mxCell id="39" value="Forecasting Engine&#xa;(SARIMA + LSTM)" style="rounded=1;whiteSpace=wrap;html=1;fillColor=#ffd966;strokeColor=#d6b656;" vertex="1" parent="1">
                    <mxGeometry x="800" y="300" width="120" height="60" as="geometry"/>
                </mxCell>
                <mxCell id="40" value="Storage Layer" style="rounded=1;whiteSpace=wrap;html=1;fillColor=#dae8fc;strokeColor=#6c8ebf;fontSize=12;fontStyle=1;" vertex="1" parent="1">
                    <mxGeometry x="480" y="420" width="200" height="40" as="geometry"/>
                </mxCell>
                <mxCell id="41" value="PostgreSQL&#xa;+ TimescaleDB" style="rounded=1;whiteSpace=wrap;html=1;fillColor=#dae8fc;strokeColor=#6c8ebf;" vertex="1" parent="1">
                    <mxGeometry x="520" y="480" width="120" height="60" as="geometry"/>
                </mxCell>
                <mxCell id="42" value="Redis&#xa;Pub/Sub" style="rounded=1;whiteSpace=wrap;html=1;fillColor=#ffe6cc;strokeColor=#d79b00;" vertex="1" parent="1">
                    <mxGeometry x="320" y="420" width="80" height="60" as="geometry"/>
                </mxCell>
                <mxCell id="43" value="API Layer" style="rounded=1;whiteSpace=wrap;html=1;fillColor=#e1d5e7;strokeColor=#9673a6;fontSize=12;fontStyle=1;" vertex="1" parent="1">
                    <mxGeometry x="480" y="580" width="200" height="40" as="geometry"/>
                </mxCell>
                <mxCell id="44" value="Django REST API" style="rounded=1;whiteSpace=wrap;html=1;fillColor=#e1d5e7;strokeColor=#9673a6;" vertex="1" parent="1">
                    <mxGeometry x="480" y="640" width="120" height="60" as="geometry"/>
                </mxCell>
                <mxCell id="45" value="WebSocket Server&#xa;(Django Channels)" style="rounded=1;whiteSpace=wrap;html=1;fillColor=#e1d5e7;strokeColor=#9673a6;" vertex="1" parent="1">
                    <mxGeometry x="620" y="640" width="120" height="60" as="geometry"/>
                </mxCell>
                <mxCell id="46" value="Angular Frontend&#xa;Dashboard" style="rounded=1;whiteSpace=wrap;html=1;fillColor=#f0f0f0;strokeColor=#666666;fontSize=12;fontStyle=1;" vertex="1" parent="1">
                    <mxGeometry x="800" y="640" width="120" height="60" as="geometry"/>
                </mxCell>
                <mxCell id="47" style="edgeStyle=orthogonalEdgeStyle;rounded=0;orthogonalLoop=1;jettySize=auto;html=1;strokeColor=#82b366;strokeWidth=2;" edge="1" parent="1" source="30" target="34">
                    <mxGeometry relative="1" as="geometry"/>
                </mxCell>
                <mxCell id="48" style="edgeStyle=orthogonalEdgeStyle;rounded=0;orthogonalLoop=1;jettySize=auto;html=1;strokeColor=#82b366;strokeWidth=2;" edge="1" parent="1" source="31" target="34">
                    <mxGeometry relative="1" as="geometry"/>
                </mxCell>
                <mxCell id="49" style="edgeStyle=orthogonalEdgeStyle;rounded=0;orthogonalLoop=1;jettySize=auto;html=1;strokeColor=#82b366;strokeWidth=2;" edge="1" parent="1" source="32" target="34">
                    <mxGeometry relative="1" as="geometry"/>
                </mxCell>
                <mxCell id="50" style="edgeStyle=orthogonalEdgeStyle;rounded=0;orthogonalLoop=1;jettySize=auto;html=1;strokeColor=#d6b656;strokeWidth=2;" edge="1" parent="1" source="34" target="36">
                    <mxGeometry relative="1" as="geometry"/>
                </mxCell>
                <mxCell id="51" style="edgeStyle=orthogonalEdgeStyle;rounded=0;orthogonalLoop=1;jettySize=auto;html=1;strokeColor=#d6b656;strokeWidth=2;" edge="1" parent="1" source="36" target="38">
                    <mxGeometry relative="1" as="geometry"/>
                </mxCell>
                <mxCell id="52" style="edgeStyle=orthogonalEdgeStyle;rounded=0;orthogonalLoop=1;jettySize=auto;html=1;strokeColor=#d6b656;strokeWidth=2;" edge="1" parent="1" source="36" target="39">
                    <mxGeometry relative="1" as="geometry"/>
                </mxCell>
                <mxCell id="53" style="edgeStyle=orthogonalEdgeStyle;rounded=0;orthogonalLoop=1;jettySize=auto;html=1;strokeColor=#6c8ebf;strokeWidth=2;" edge="1" parent="1" source="36" target="41">
                    <mxGeometry relative="1" as="geometry"/>
                </mxCell>
                <mxCell id="54" style="edgeStyle=orthogonalEdgeStyle;rounded=0;orthogonalLoop=1;jettySize=auto;html=1;strokeColor=#d79b00;strokeWidth=2;" edge="1" parent="1" source="38" target="42">
                    <mxGeometry relative="1" as="geometry"/>
                </mxCell>
                <mxCell id="55" style="edgeStyle=orthogonalEdgeStyle;rounded=0;orthogonalLoop=1;jettySize=auto;html=1;strokeColor=#d79b00;strokeWidth=2;" edge="1" parent="1" source="42" target="45">
                    <mxGeometry relative="1" as="geometry"/>
                </mxCell>
                <mxCell id="56" style="edgeStyle=orthogonalEdgeStyle;rounded=0;orthogonalLoop=1;jettySize=auto;html=1;strokeColor=#9673a6;strokeWidth=2;" edge="1" parent="1" source="41" target="44">
                    <mxGeometry relative="1" as="geometry"/>
                </mxCell>
                <mxCell id="57" style="edgeStyle=orthogonalEdgeStyle;rounded=0;orthogonalLoop=1;jettySize=auto;html=1;strokeColor=#666666;strokeWidth=2;" edge="1" parent="1" source="44" target="46">
                    <mxGeometry relative="1" as="geometry"/>
                </mxCell>
                <mxCell id="58" style="edgeStyle=orthogonalEdgeStyle;rounded=0;orthogonalLoop=1;jettySize=auto;html=1;strokeColor=#666666;strokeWidth=2;" edge="1" parent="1" source="45" target="46">
                    <mxGeometry relative="1" as="geometry"/>
                </mxCell>
                <mxCell id="59" value="SSH Secure&#xa;Connection" style="text;html=1;strokeColor=none;fillColor=none;align=center;verticalAlign=middle;whiteSpace=wrap;rounded=0;fontSize=10;fontColor=#82b366;" vertex="1" parent="1">
                    <mxGeometry x="200" y="220" width="80" height="30" as="geometry"/>
                </mxCell>
                <mxCell id="60" value="Real-time&#xa;Streaming" style="text;html=1;strokeColor=none;fillColor=none;align=center;verticalAlign=middle;whiteSpace=wrap;rounded=0;fontSize=10;fontColor=#d6b656;" vertex="1" parent="1">
                    <mxGeometry x="380" y="320" width="80" height="30" as="geometry"/>
                </mxCell>
                <mxCell id="61" value="Real-time&#xa;Updates" style="text;html=1;strokeColor=none;fillColor=none;align=center;verticalAlign=middle;whiteSpace=wrap;rounded=0;fontSize=10;fontColor=#d79b00;" vertex="1" parent="1">
                    <mxGeometry x="360" y="520" width="80" height="30" as="geometry"/>
                </mxCell>
                <mxCell id="62" value="Historical&#xa;Data" style="text;html=1;strokeColor=none;fillColor=none;align=center;verticalAlign=middle;whiteSpace=wrap;rounded=0;fontSize=10;fontColor=#9673a6;" vertex="1" parent="1">
                    <mxGeometry x="620" y="560" width="80" height="30" as="geometry"/>
                </mxCell>
            </root>
        </mxGraphModel>
    </diagram>
</mxfile>